<?xml version="1.0" ?><!DOCTYPE svg  PUBLIC '-//W3C//DTD SVG 20010904//EN'  'http://www.w3.org/TR/2001/REC-SVG-20010904/DTD/svg10.dtd'><svg xmlns="http://www.w3.org/2000/svg" version="1.0" width="2048.000000pt" height="2048.000000pt" viewBox="0 0 2048.000000 2048.000000" preserveAspectRatio="xMidYMid meet"><circle cx="50%" cy="50%" r="49%" fill="none" stroke="white" stroke-width="8"/>

<g transform="translate(0.000000,2048.000000) scale(0.100000,-0.100000)" fill="#ffffff" stroke="none">
<path d="M13969 15690 l-374 -420 -865 0 -866 0 -73 258 c-40 141 -82 277 -93 302 -23 54 -78 114 -133 143 l-40 22 -1081 3 -1080 2 -65 -32 c-106 -54 -119 -79 -214 -410 l-82 -283 -1304 -5 c-1441 -6 -1331 -1 -1475 -71 -130 -64 -255 -215 -301 -364 -17 -57 -18 -160 -18 -2365 l0 -2305 28 -78 c70 -199 221 -340 420 -393 43 -11 251 -14 1150 -14 603 0 1097 -3 1097 -7 0 -5 -31 -42 -68 -84 -226 -255 -627 -705 -632 -709 -3 -3 -36 -39 -73 -82 l-68 -76 113 -101 c62 -56 117 -101 123 -100 5 0 40 35 77 77 37 42 78 88 90 102 13 14 113 126 223 250 111 124 349 392 530 595 181 204 442 496 579 650 137 154 282 316 321 360 305 340 447 502 446 512 0 4 -31 13 -68 18 l-67 10 -68 260 c-38 143 -85 322 -105 398 -20 75 -34 139 -32 141 2 2 150 -36 329 -85 179 -50 374 -103 434 -120 l109 -30 29 27 c15 15 28 31 28 35 0 4 -33 15 -72 24 -40 10 -75 20 -78 22 -7 6 1103 1112 1112 1107 4 -3 8 -14 8 -25 0 -35 24 -17 120 91 51 58 109 123 129 145 20 22 201 225 402 450 376 423 1236 1389 1299 1460 19 22 58 64 85 95 120 131 695 778 713 802 11 14 -1 29 -99 117 -62 56 -116 101 -119 101 -4 0 -176 -189 -381 -420z m-2495 48 c7 -13 58 -177 111 -365 l98 -343 844 0 c463 0 843 -2 843 -6 0 -3 -93 -109 -207 -237 -114 -128 -366 -411 -560 -629 -195 -219 -355 -398 -357 -398 -2 0 -46 53 -99 118 -347 428 -829 703 -1382 787 -150 23 -394 30 -537 16 -444 -43 -849 -209 -1206 -493 -70 -56 -313 -311 -362 -381 l-54 -77 -1231 2 -1230 3 0 510 0 510 29 62 c34 75 98 138 181 179 l60 29 1385 5 1384 5 28 95 c15 52 60 208 99 345 39 138 78 258 87 268 14 16 76 17 1038 17 l1024 0 14 -22z m-684 -1322 c443 -82 838 -306 1119 -631 107 -124 163 -201 159 -218 -2 -8 -52 -69 -112 -136 l-109 -120 -50 72 c-252 367 -608 607 -1032 697 -129 28 -419 38 -544 20 -198 -28 -375 -85 -544 -173 -587 -307 -934 -930 -879 -1578 27 -307 110 -548 279 -803 97 -148 290 -337 450 -443 68 -45 147 -91 178 -104 30 -12 55 -25 55 -28 0 -6 -108 -129 -187 -214 l-45 -47 -55 31 c-266 145 -518 378 -686 634 -120 184 -229 436 -278 645 -51 215 -65 525 -34 739 129 886 851 1579 1750 1681 141 16 413 4 565 -24z m-131 -483 c26 -10 23 -3 116 -338 26 -93 62 -222 80 -286 18 -63 37 -132 40 -152 7 -37 7 -37 -18 -28 -14 6 -101 30 -194 55 -92 24 -226 60 -298 80 -71 19 -222 60 -335 90 l-205 55 -27 -26 c-16 -15 -28 -30 -28 -33 0 -4 46 -19 103 -34 56 -16 135 -38 175 -49 l73 -20 -380 -381 -381 -381 0 -55 0 -55 130 130 c87 87 131 124 134 114 6 -15 21 -73 87 -329 22 -85 78 -299 125 -475 179 -681 182 -690 169 -693 -16 -4 -236 86 -302 124 -298 167 -551 461 -658 765 l-13 36 79 79 c66 65 79 84 79 110 0 72 -8 71 -96 -17 -46 -46 -85 -81 -88 -78 -2 2 -13 42 -23 89 -26 121 -26 439 0 560 29 132 72 256 130 370 50 100 157 261 191 289 14 12 35 9 140 -19 l124 -33 31 22 c38 28 40 47 4 53 -69 12 -213 54 -213 62 0 27 181 165 318 241 143 79 285 129 477 164 63 12 422 8 454 -6z m213 -54 c372 -124 683 -402 852 -759 75 -160 101 -110 -230 -441 -159 -159 -292 -289 -295 -289 -7 0 -24 59 -114 385 -36 132 -81 294 -100 360 -19 66 -73 260 -120 430 -47 171 -88 318 -91 328 -7 22 -11 22 98 -14z m-2212 -2737 c175 -231 395 -432 623 -567 43 -26 77 -51 75 -56 -2 -4 -86 -101 -188 -215 -264 -296 -281 -315 -320 -354 l-35 -35 -1210 5 -1210 5 -53 28 c-61 32 -132 99 -158 148 -41 81 -44 114 -44 620 0 267 2 488 4 490 2 2 558 3 1235 1 l1230 -2 51 -68z"/>
<path d="M6535 14645 c-25 -24 -25 -25 -25 -217 0 -159 3 -198 16 -216 l15 -22 453 0 c410 0 455 2 467 17 11 12 14 62 14 218 0 186 -2 205 -19 224 -19 21 -25 21 -458 21 l-439 0 -24 -25z"/>
<path d="M6884 15836 c-56 -25 -64 -47 -64 -183 0 -121 0 -123 29 -155 l29 -33 539 -3 c372 -2 550 0 576 8 62 18 77 53 77 188 0 127 -10 155 -67 178 -47 20 -1073 20 -1119 0z"/>
<path d="M7687 8153 c-3 -5 -55 -163 -117 -353 -134 -413 -285 -874 -346 -1060 -24 -74 -44 -141 -44 -148 0 -9 53 -12 229 -12 l230 0 15 53 c8 28 25 90 37 137 12 47 25 89 29 93 10 12 503 9 510 -3 3 -5 21 -70 40 -145 l35 -135 233 0 c183 0 233 3 229 13 -5 13 -435 1316 -485 1472 l-30 90 -280 3 c-154 1 -283 -1 -285 -5z m303 -340 c12 -59 94 -381 129 -508 11 -38 17 -73 15 -77 -5 -8 -324 -12 -324 -4 0 2 31 126 69 277 38 151 72 295 76 322 4 26 11 47 15 47 5 0 14 -26 20 -57z"/>
<path d="M6380 7388 c0 -808 -2 -845 -47 -907 -31 -42 -79 -61 -158 -61 -38 0 -87 4 -107 9 l-38 9 0 -163 c0 -146 2 -164 18 -170 9 -4 79 -10 155 -13 109 -4 152 -1 210 13 200 48 326 187 374 415 16 78 18 152 18 855 l0 770 -212 3 -213 2 0 -762z"/>
<path d="M8974 8135 c10 -27 488 -920 497 -930 5 -5 9 -147 9 -317 l0 -308 215 0 215 0 0 309 0 310 255 471 c140 259 255 473 255 475 0 3 -103 5 -229 5 l-228 0 -21 -47 c-65 -152 -240 -515 -247 -515 -8 0 -165 329 -247 515 l-20 47 -230 0 c-201 0 -229 -2 -224 -15z"/>
<path d="M11560 7366 l0 -786 210 0 210 0 0 285 0 286 57 -3 56 -3 164 -282 165 -283 240 0 c189 0 238 3 232 13 -4 6 -104 156 -222 332 -118 176 -216 325 -219 331 -2 5 18 24 45 42 139 90 212 225 212 392 0 229 -114 364 -365 431 -73 20 -112 22 -432 27 l-353 4 0 -786z m640 439 c48 -23 72 -59 78 -116 6 -67 -4 -113 -35 -149 -39 -47 -78 -62 -175 -68 l-88 -5 0 183 0 183 93 -5 c57 -3 105 -12 127 -23z"/>
<path d="M13240 7365 l0 -785 464 0 464 0 5 28 c10 48 5 296 -5 310 -8 9 -71 12 -254 12 l-244 0 0 145 0 145 233 2 232 3 3 168 2 167 -235 0 -235 0 0 125 0 125 253 2 252 3 0 165 0 165 -467 3 -468 2 0 -785z"/>
</g>
</svg>